# xmcd CD database file
#
# Track frame offsets:
#	150
#	10294
#	21359
#	32840
#	44019
#	55568
#	66836
#	77438
#	88425
#	98465
#	107958
#	118445
#
# Disc length: 1713 seconds
#
# Revision: 0
# Processed by: cddbd v1.5.2PL0 Copyright (c) Steve Scherf et al.
# Submitted via: CDex 1.51
#
DISCID=9f06af0c
DTITLE=Lee Allen and his band - Walkin' with Mr Lee
DYEAR=2008
DGENRE=Jazz
TTITLE0=Promenade
TTITLE1=Walkin' With Mr Lee
TTITLE2=Tic Toc
TTITLE3=Bee Hive
TTITLE4=Chuggin'
TTITLE5=Big Horn Special
TTITLE6=Jim Jam
TTITLE7=Strollin With Mr Lee
TTITLE8=Teen Dream
TTITLE9=Boppin' At The Hop
TTITLE10=Lee's Blues
TTITLE11=Hot Rod Special
EXTD=YEAR: 2008
EXTT0=
EXTT1=
EXTT2=
EXTT3=
EXTT4=
EXTT5=
EXTT6=
EXTT7=
EXTT8=
EXTT9=
EXTT10=
EXTT11=
PLAYORDER=
